<mxfile host="app.diagrams.net" modified="2024-04-30T18:03:38.809Z" agent="Mozilla/5.0 (Windows NT 10.0; Win64; x64) AppleWebKit/537.36 (KHTML, like Gecko) Chrome/124.0.0.0 Safari/537.36 Edg/124.0.0.0" etag="LQ5i1IZnoeX2-b1AcYGg" version="24.3.1" type="github">
  <diagram name="第 1 页" id="n8vJ-IztxUJa_jr9M0l1">
    <mxGraphModel dx="1042" dy="569" grid="1" gridSize="10" guides="1" tooltips="1" connect="1" arrows="1" fold="1" page="1" pageScale="1" pageWidth="827" pageHeight="1169" math="0" shadow="0">
      <root>
        <mxCell id="0" />
        <mxCell id="1" parent="0" />
        <mxCell id="JBW0FveoJYngJLi1HycC-1" value=":OPS" style="shape=umlLifeline;perimeter=lifelinePerimeter;whiteSpace=wrap;html=1;container=1;dropTarget=0;collapsible=0;recursiveResize=0;outlineConnect=0;portConstraint=eastwest;newEdgeStyle={&quot;curved&quot;:0,&quot;rounded&quot;:0};participant=umlBoundary;align=center;labelPosition=center;verticalLabelPosition=middle;verticalAlign=middle;" vertex="1" parent="1">
          <mxGeometry x="240" y="80" width="50" height="560" as="geometry" />
        </mxCell>
        <mxCell id="JBW0FveoJYngJLi1HycC-2" value="" style="html=1;points=[[0,0,0,0,5],[0,1,0,0,-5],[1,0,0,0,5],[1,1,0,0,-5]];perimeter=orthogonalPerimeter;outlineConnect=0;targetShapes=umlLifeline;portConstraint=eastwest;newEdgeStyle={&quot;curved&quot;:0,&quot;rounded&quot;:0};" vertex="1" parent="JBW0FveoJYngJLi1HycC-1">
          <mxGeometry x="20" y="80" width="10" height="440" as="geometry" />
        </mxCell>
        <mxCell id="JBW0FveoJYngJLi1HycC-3" value="" style="shape=umlLifeline;perimeter=lifelinePerimeter;whiteSpace=wrap;html=1;container=1;dropTarget=0;collapsible=0;recursiveResize=0;outlineConnect=0;portConstraint=eastwest;newEdgeStyle={&quot;curved&quot;:0,&quot;rounded&quot;:0};participant=umlActor;" vertex="1" parent="1">
          <mxGeometry x="150" y="80" width="20" height="560" as="geometry" />
        </mxCell>
        <mxCell id="JBW0FveoJYngJLi1HycC-4" value="" style="html=1;points=[[0,0,0,0,5],[0,1,0,0,-5],[1,0,0,0,5],[1,1,0,0,-5]];perimeter=orthogonalPerimeter;outlineConnect=0;targetShapes=umlLifeline;portConstraint=eastwest;newEdgeStyle={&quot;curved&quot;:0,&quot;rounded&quot;:0};" vertex="1" parent="JBW0FveoJYngJLi1HycC-3">
          <mxGeometry x="5" y="60" width="10" height="460" as="geometry" />
        </mxCell>
        <mxCell id="JBW0FveoJYngJLi1HycC-5" value="" style="html=1;points=[[0,0,0,0,5],[0,1,0,0,-5],[1,0,0,0,5],[1,1,0,0,-5]];perimeter=orthogonalPerimeter;outlineConnect=0;targetShapes=umlLifeline;portConstraint=eastwest;newEdgeStyle={&quot;curved&quot;:0,&quot;rounded&quot;:0};" vertex="1" parent="JBW0FveoJYngJLi1HycC-3">
          <mxGeometry x="10" y="360" width="10" height="50" as="geometry" />
        </mxCell>
        <mxCell id="JBW0FveoJYngJLi1HycC-6" value=":customer" style="text;html=1;align=center;verticalAlign=middle;resizable=0;points=[];autosize=1;strokeColor=none;fillColor=none;" vertex="1" parent="1">
          <mxGeometry x="120" y="50" width="80" height="30" as="geometry" />
        </mxCell>
        <mxCell id="JBW0FveoJYngJLi1HycC-7" value="下订单" style="html=1;verticalAlign=bottom;endArrow=block;curved=0;rounded=0;" edge="1" parent="1">
          <mxGeometry width="80" relative="1" as="geometry">
            <mxPoint x="165" y="160" as="sourcePoint" />
            <mxPoint x="264.5" y="160" as="targetPoint" />
          </mxGeometry>
        </mxCell>
        <mxCell id="JBW0FveoJYngJLi1HycC-8" value="loop" style="shape=umlFrame;whiteSpace=wrap;html=1;pointerEvents=0;" vertex="1" parent="1">
          <mxGeometry x="60" y="180" width="440" height="230" as="geometry" />
        </mxCell>
        <mxCell id="JBW0FveoJYngJLi1HycC-9" value="[有未下单产品］" style="text;html=1;align=center;verticalAlign=middle;resizable=0;points=[];autosize=1;strokeColor=none;fillColor=none;" vertex="1" parent="1">
          <mxGeometry x="50" y="210" width="110" height="30" as="geometry" />
        </mxCell>
        <mxCell id="JBW0FveoJYngJLi1HycC-10" value="提交订单项" style="html=1;verticalAlign=bottom;endArrow=block;curved=0;rounded=0;" edge="1" parent="1" source="JBW0FveoJYngJLi1HycC-4">
          <mxGeometry width="80" relative="1" as="geometry">
            <mxPoint x="160" y="220" as="sourcePoint" />
            <mxPoint x="260" y="220" as="targetPoint" />
          </mxGeometry>
        </mxCell>
        <mxCell id="JBW0FveoJYngJLi1HycC-11" value="确认产品可用性" style="html=1;verticalAlign=bottom;endArrow=block;curved=0;rounded=0;entryX=0;entryY=0;entryDx=0;entryDy=5;" edge="1" parent="1" source="JBW0FveoJYngJLi1HycC-2" target="JBW0FveoJYngJLi1HycC-15">
          <mxGeometry relative="1" as="geometry">
            <mxPoint x="310" y="235" as="sourcePoint" />
          </mxGeometry>
        </mxCell>
        <mxCell id="JBW0FveoJYngJLi1HycC-12" value="availability" style="html=1;verticalAlign=bottom;endArrow=open;dashed=1;endSize=8;curved=0;rounded=0;exitX=0;exitY=1;exitDx=0;exitDy=-5;" edge="1" parent="1" source="JBW0FveoJYngJLi1HycC-15" target="JBW0FveoJYngJLi1HycC-2">
          <mxGeometry relative="1" as="geometry">
            <mxPoint x="310" y="305" as="targetPoint" />
          </mxGeometry>
        </mxCell>
        <mxCell id="JBW0FveoJYngJLi1HycC-13" value="alt" style="shape=umlFrame;whiteSpace=wrap;html=1;pointerEvents=0;" vertex="1" parent="1">
          <mxGeometry x="70" y="270" width="420" height="130" as="geometry" />
        </mxCell>
        <mxCell id="JBW0FveoJYngJLi1HycC-14" value=":WH" style="shape=umlLifeline;perimeter=lifelinePerimeter;whiteSpace=wrap;html=1;container=1;dropTarget=0;collapsible=0;recursiveResize=0;outlineConnect=0;portConstraint=eastwest;newEdgeStyle={&quot;curved&quot;:0,&quot;rounded&quot;:0};participant=umlEntity;" vertex="1" parent="1">
          <mxGeometry x="340" y="80" width="40" height="560" as="geometry" />
        </mxCell>
        <mxCell id="JBW0FveoJYngJLi1HycC-15" value="" style="html=1;points=[[0,0,0,0,5],[0,1,0,0,-5],[1,0,0,0,5],[1,1,0,0,-5]];perimeter=orthogonalPerimeter;outlineConnect=0;targetShapes=umlLifeline;portConstraint=eastwest;newEdgeStyle={&quot;curved&quot;:0,&quot;rounded&quot;:0};" vertex="1" parent="JBW0FveoJYngJLi1HycC-14">
          <mxGeometry x="15" y="140" width="10" height="40" as="geometry" />
        </mxCell>
        <mxCell id="JBW0FveoJYngJLi1HycC-16" value="[availability］" style="text;html=1;align=center;verticalAlign=middle;resizable=0;points=[];autosize=1;strokeColor=none;fillColor=none;" vertex="1" parent="1">
          <mxGeometry x="120" y="290" width="90" height="30" as="geometry" />
        </mxCell>
        <mxCell id="JBW0FveoJYngJLi1HycC-17" value=":Basket" style="shape=umlLifeline;perimeter=lifelinePerimeter;whiteSpace=wrap;html=1;container=1;dropTarget=0;collapsible=0;recursiveResize=0;outlineConnect=0;portConstraint=eastwest;newEdgeStyle={&quot;curved&quot;:0,&quot;rounded&quot;:0};participant=umlEntity;" vertex="1" parent="1">
          <mxGeometry x="420" y="80" width="40" height="560" as="geometry" />
        </mxCell>
        <mxCell id="JBW0FveoJYngJLi1HycC-18" value="" style="html=1;points=[[0,0,0,0,5],[0,1,0,0,-5],[1,0,0,0,5],[1,1,0,0,-5]];perimeter=orthogonalPerimeter;outlineConnect=0;targetShapes=umlLifeline;portConstraint=eastwest;newEdgeStyle={&quot;curved&quot;:0,&quot;rounded&quot;:0};" vertex="1" parent="JBW0FveoJYngJLi1HycC-17">
          <mxGeometry x="15" y="225" width="10" height="25" as="geometry" />
        </mxCell>
        <mxCell id="JBW0FveoJYngJLi1HycC-19" value="" style="html=1;points=[[0,0,0,0,5],[0,1,0,0,-5],[1,0,0,0,5],[1,1,0,0,-5]];perimeter=orthogonalPerimeter;outlineConnect=0;targetShapes=umlLifeline;portConstraint=eastwest;newEdgeStyle={&quot;curved&quot;:0,&quot;rounded&quot;:0};" vertex="1" parent="JBW0FveoJYngJLi1HycC-17">
          <mxGeometry x="15" y="460" width="10" height="40" as="geometry" />
        </mxCell>
        <mxCell id="JBW0FveoJYngJLi1HycC-20" value="" style="edgeStyle=none;orthogonalLoop=1;jettySize=auto;html=1;rounded=0;endArrow=none;endFill=0;dashed=1;exitX=-0.002;exitY=0.502;exitDx=0;exitDy=0;exitPerimeter=0;entryX=1.006;entryY=0.502;entryDx=0;entryDy=0;entryPerimeter=0;" edge="1" parent="1" source="JBW0FveoJYngJLi1HycC-13" target="JBW0FveoJYngJLi1HycC-13">
          <mxGeometry width="100" relative="1" as="geometry">
            <mxPoint x="80" y="380" as="sourcePoint" />
            <mxPoint x="180" y="380" as="targetPoint" />
            <Array as="points" />
          </mxGeometry>
        </mxCell>
        <mxCell id="JBW0FveoJYngJLi1HycC-21" value="[else］" style="text;html=1;align=center;verticalAlign=middle;resizable=0;points=[];autosize=1;strokeColor=none;fillColor=none;" vertex="1" parent="1">
          <mxGeometry x="130" y="330" width="60" height="30" as="geometry" />
        </mxCell>
        <mxCell id="JBW0FveoJYngJLi1HycC-22" value="加入购物篮" style="html=1;verticalAlign=bottom;endArrow=block;curved=0;rounded=0;" edge="1" parent="1">
          <mxGeometry x="-0.41" width="80" relative="1" as="geometry">
            <mxPoint x="270" y="304.5" as="sourcePoint" />
            <mxPoint x="439.5" y="304.5" as="targetPoint" />
            <mxPoint as="offset" />
          </mxGeometry>
        </mxCell>
        <mxCell id="JBW0FveoJYngJLi1HycC-23" value="提示产品不可用" style="html=1;verticalAlign=bottom;endArrow=block;curved=0;rounded=0;" edge="1" parent="1" target="JBW0FveoJYngJLi1HycC-4">
          <mxGeometry width="80" relative="1" as="geometry">
            <mxPoint x="260" y="380" as="sourcePoint" />
            <mxPoint x="160" y="380" as="targetPoint" />
          </mxGeometry>
        </mxCell>
        <mxCell id="JBW0FveoJYngJLi1HycC-24" value="确认用户信息" style="html=1;verticalAlign=bottom;endArrow=block;curved=0;rounded=0;entryX=1;entryY=0;entryDx=0;entryDy=5;" edge="1" parent="1" source="JBW0FveoJYngJLi1HycC-2" target="JBW0FveoJYngJLi1HycC-5">
          <mxGeometry relative="1" as="geometry">
            <mxPoint x="240" y="445" as="sourcePoint" />
            <mxPoint as="offset" />
          </mxGeometry>
        </mxCell>
        <mxCell id="JBW0FveoJYngJLi1HycC-25" value="validity" style="html=1;verticalAlign=bottom;endArrow=open;dashed=1;endSize=8;curved=0;rounded=0;exitX=1;exitY=1;exitDx=0;exitDy=-5;" edge="1" parent="1" source="JBW0FveoJYngJLi1HycC-5" target="JBW0FveoJYngJLi1HycC-2">
          <mxGeometry relative="1" as="geometry">
            <mxPoint x="240" y="515" as="targetPoint" />
          </mxGeometry>
        </mxCell>
        <mxCell id="JBW0FveoJYngJLi1HycC-26" value="loop" style="shape=umlFrame;whiteSpace=wrap;html=1;pointerEvents=0;" vertex="1" parent="1">
          <mxGeometry x="60" y="425" width="440" height="75" as="geometry" />
        </mxCell>
        <mxCell id="JBW0FveoJYngJLi1HycC-27" value="[validity=false］" style="text;html=1;align=center;verticalAlign=middle;resizable=0;points=[];autosize=1;strokeColor=none;fillColor=none;" vertex="1" parent="1">
          <mxGeometry x="50" y="450" width="110" height="30" as="geometry" />
        </mxCell>
        <mxCell id="JBW0FveoJYngJLi1HycC-28" value="提交成功" style="html=1;verticalAlign=bottom;endArrow=open;dashed=1;endSize=8;curved=0;rounded=0;" edge="1" parent="1" target="JBW0FveoJYngJLi1HycC-4">
          <mxGeometry relative="1" as="geometry">
            <mxPoint x="170" y="585" as="targetPoint" />
            <mxPoint x="260" y="580" as="sourcePoint" />
          </mxGeometry>
        </mxCell>
        <mxCell id="JBW0FveoJYngJLi1HycC-29" value="提交订单" style="html=1;verticalAlign=bottom;endArrow=block;curved=0;rounded=0;entryX=0;entryY=0;entryDx=0;entryDy=5;" edge="1" parent="1">
          <mxGeometry relative="1" as="geometry">
            <mxPoint x="165" y="530" as="sourcePoint" />
            <mxPoint x="260" y="530" as="targetPoint" />
          </mxGeometry>
        </mxCell>
        <mxCell id="JBW0FveoJYngJLi1HycC-30" value="生成订单" style="html=1;verticalAlign=bottom;endArrow=block;curved=0;rounded=0;entryX=0;entryY=0;entryDx=0;entryDy=5;" edge="1" parent="1" source="JBW0FveoJYngJLi1HycC-2" target="JBW0FveoJYngJLi1HycC-19">
          <mxGeometry x="-0.3939" relative="1" as="geometry">
            <mxPoint x="365" y="545" as="sourcePoint" />
            <mxPoint as="offset" />
          </mxGeometry>
        </mxCell>
        <mxCell id="JBW0FveoJYngJLi1HycC-31" value="订单" style="html=1;verticalAlign=bottom;endArrow=open;dashed=1;endSize=8;curved=0;rounded=0;exitX=0;exitY=1;exitDx=0;exitDy=-5;" edge="1" parent="1" source="JBW0FveoJYngJLi1HycC-19" target="JBW0FveoJYngJLi1HycC-2">
          <mxGeometry x="0.3939" relative="1" as="geometry">
            <mxPoint x="365" y="615" as="targetPoint" />
            <mxPoint as="offset" />
          </mxGeometry>
        </mxCell>
        <mxCell id="JBW0FveoJYngJLi1HycC-32" value=":订单处理系统" style="text;html=1;align=center;verticalAlign=middle;resizable=0;points=[];autosize=1;strokeColor=none;fillColor=none;" vertex="1" parent="1">
          <mxGeometry x="215" y="50" width="100" height="30" as="geometry" />
        </mxCell>
        <mxCell id="JBW0FveoJYngJLi1HycC-33" value=":仓库" style="text;html=1;align=center;verticalAlign=middle;resizable=0;points=[];autosize=1;strokeColor=none;fillColor=none;" vertex="1" parent="1">
          <mxGeometry x="335" y="50" width="50" height="30" as="geometry" />
        </mxCell>
        <mxCell id="JBW0FveoJYngJLi1HycC-34" value=":购物篮" style="text;html=1;align=center;verticalAlign=middle;resizable=0;points=[];autosize=1;strokeColor=none;fillColor=none;" vertex="1" parent="1">
          <mxGeometry x="405" y="50" width="60" height="30" as="geometry" />
        </mxCell>
      </root>
    </mxGraphModel>
  </diagram>
</mxfile>
